<mxfile host="app.diagrams.net" modified="2023-03-26T14:35:25.683Z" agent="Mozilla/5.0 (Windows NT 10.0; Win64; x64) AppleWebKit/537.36 (KHTML, like Gecko) Chrome/111.0.0.0 Safari/537.36 Edg/111.0.1661.54" version="21.1.1" etag="7lu-PENS6Qk7DTEM6FI7" type="github">
  <diagram name="페이지-1" id="3-V0uvV4JS2Wrb7r2gie">
    <mxGraphModel>
      <root>
        <mxCell id="0" />
        <mxCell id="1" parent="0" />
      </root>
    </mxGraphModel>
  </diagram>
</mxfile>
